<svg width="60" height="69" viewBox="0 0 60 69" fill="none" xmlns="http://www.w3.org/2000/svg">
<path d="M15 30.1875V38.8125H45V30.1875C45 25.4303 47.6906 21.5625 51 21.5625H54C54 14.4199 49.9688 8.625 45 8.625H15C10.0312 8.625 6 14.4199 6 21.5625H9C12.3094 21.5625 15 25.4303 15 30.1875ZM54 25.875H51C49.3406 25.875 48 27.8021 48 30.1875V43.125H12V30.1875C12 27.8021 10.6594 25.875 9 25.875H6C2.69063 25.875 0 29.7428 0 34.5C0 37.6805 1.21875 40.4297 3 41.9256V58.2188C3 59.4047 3.675 60.375 4.5 60.375H10.5C11.325 60.375 12 59.4047 12 58.2188V56.0625H48V58.2188C48 59.4047 48.675 60.375 49.5 60.375H55.5C56.325 60.375 57 59.4047 57 58.2188V41.9256C58.7812 40.4297 60 37.6805 60 34.5C60 29.7428 57.3094 25.875 54 25.875Z" fill="#EA2525"/>
</svg>
